M48
; DRILL file {KiCad 9.0.2} date 2025-07-17T15:39:25+0700
; FORMAT={-:-/ absolute / metric / decimal}
; #@! TF.CreationDate,2025-07-17T15:39:25+07:00
; #@! TF.GenerationSoftware,Kicad,Pcbnew,9.0.2
; #@! TF.FileFunction,Plated,1,2,PTH
FMAT,2
METRIC
; #@! TA.AperFunction,Plated,PTH,ComponentDrill
T1C1.000
; #@! TA.AperFunction,Plated,PTH,ComponentDrill
T2C1.150
%
G90
G05
T1
X181.52Y-63.66
X181.52Y-66.2
X181.52Y-68.74
X181.52Y-71.28
X181.52Y-73.82
X181.52Y-76.36
X181.52Y-78.9
X181.52Y-81.44
X181.52Y-83.98
X181.52Y-86.52
X181.52Y-89.06
X181.52Y-91.6
X181.52Y-94.14
X181.52Y-96.68
X181.52Y-99.22
X181.52Y-101.76
X181.52Y-104.3
X181.52Y-106.84
X181.52Y-109.38
X181.52Y-111.92
X199.3Y-63.66
X199.3Y-66.2
X199.3Y-68.74
X199.3Y-71.28
X199.3Y-73.82
X199.3Y-76.36
X199.3Y-78.9
X199.3Y-81.44
X199.3Y-83.98
X199.3Y-86.52
X199.3Y-89.06
X199.3Y-91.6
X199.3Y-94.14
X199.3Y-96.68
X199.3Y-99.22
X199.3Y-101.76
X199.3Y-104.3
X199.3Y-106.84
X199.3Y-109.38
X199.3Y-111.92
T2
X146.59Y-80.39
X146.89Y-100.39
X147.4Y-121.79
X151.19Y-80.39
X151.49Y-100.39
X152.0Y-121.79
X155.4Y-61.1
X155.59Y-80.39
X155.89Y-100.39
X156.1Y-121.79
X160.0Y-61.1
X160.19Y-80.39
X160.49Y-100.39
X160.7Y-121.79
X164.59Y-80.39
X164.6Y-61.1
X164.89Y-100.39
X164.99Y-121.6
X169.19Y-80.39
X169.2Y-61.1
X169.49Y-100.39
X169.59Y-121.6
X174.19Y-121.6
X178.79Y-121.6
X183.39Y-121.6
X188.19Y-121.2
X192.79Y-121.2
X197.39Y-121.2
X201.99Y-121.2
X206.59Y-121.2
X215.59Y-78.4
X215.59Y-83.0
X215.59Y-87.6
X215.59Y-92.4
X215.59Y-97.0
X215.59Y-101.6
X215.6Y-106.8
X215.6Y-111.4
X215.6Y-116.0
X215.6Y-120.6
X215.6Y-125.2
X215.78Y-64.8
X215.78Y-69.4
X215.78Y-74.0
M30
