M48
; DRILL file {KiCad 9.0.2} date 2025-07-17T15:39:25+0700
; FORMAT={-:-/ absolute / metric / decimal}
; #@! TF.CreationDate,2025-07-17T15:39:25+07:00
; #@! TF.GenerationSoftware,Kicad,Pcbnew,9.0.2
; #@! TF.FileFunction,NonPlated,1,2,NPTH
FMAT,2
METRIC
; #@! TA.AperFunction,NonPlated,NPTH,ComponentDrill
T1C2.200
; #@! TA.AperFunction,NonPlated,NPTH,ComponentDrill
T2C2.600
%
G90
G05
T1
X147.0Y-53.0
X147.0Y-141.0
X231.0Y-53.0
X231.0Y-141.0
T2
X146.59Y-92.99
X146.89Y-112.99
X147.4Y-134.39
X151.19Y-92.99
X151.49Y-112.99
X152.0Y-134.39
X155.4Y-73.7
X155.59Y-92.99
X155.89Y-112.99
X156.1Y-134.39
X160.0Y-73.7
X160.19Y-92.99
X160.49Y-112.99
X160.7Y-134.39
X164.59Y-92.99
X164.6Y-73.7
X164.89Y-112.99
X164.99Y-134.2
X169.19Y-92.99
X169.2Y-73.7
X169.49Y-112.99
X169.59Y-134.2
X174.19Y-134.2
X178.79Y-134.2
X183.39Y-134.2
X188.19Y-133.8
X192.79Y-133.8
X197.39Y-133.8
X201.99Y-133.8
X206.59Y-133.8
X228.19Y-78.4
X228.19Y-83.0
X228.19Y-87.6
X228.19Y-92.4
X228.19Y-97.0
X228.19Y-101.6
X228.2Y-106.8
X228.2Y-111.4
X228.2Y-116.0
X228.2Y-120.6
X228.2Y-125.2
X228.38Y-64.8
X228.38Y-69.4
X228.38Y-74.0
M30
