%TF.GenerationSoftware,KiCad,Pcbnew,9.0.2*%
%TF.CreationDate,2025-07-17T15:39:28+07:00*%
%TF.ProjectId,KiCAD,4b694341-442e-46b6-9963-61645f706362,rev?*%
%TF.SameCoordinates,Original*%
%TF.FileFunction,Legend,Top*%
%TF.FilePolarity,Positive*%
%FSLAX46Y46*%
G04 Gerber Fmt 4.6, Leading zero omitted, Abs format (unit mm)*
G04 Created by KiCad (PCBNEW 9.0.2) date 2025-07-17 15:39:28*
%MOMM*%
%LPD*%
G01*
G04 APERTURE LIST*
%ADD10C,0.100000*%
%ADD11C,0.400000*%
%ADD12C,0.150000*%
%ADD13C,0.120000*%
G04 APERTURE END LIST*
D10*
X221303884Y-136491466D02*
X222065789Y-136491466D01*
X222494360Y-136824800D02*
X222637217Y-136872419D01*
X222637217Y-136872419D02*
X222875312Y-136872419D01*
X222875312Y-136872419D02*
X222970550Y-136824800D01*
X222970550Y-136824800D02*
X223018169Y-136777180D01*
X223018169Y-136777180D02*
X223065788Y-136681942D01*
X223065788Y-136681942D02*
X223065788Y-136586704D01*
X223065788Y-136586704D02*
X223018169Y-136491466D01*
X223018169Y-136491466D02*
X222970550Y-136443847D01*
X222970550Y-136443847D02*
X222875312Y-136396228D01*
X222875312Y-136396228D02*
X222684836Y-136348609D01*
X222684836Y-136348609D02*
X222589598Y-136300990D01*
X222589598Y-136300990D02*
X222541979Y-136253371D01*
X222541979Y-136253371D02*
X222494360Y-136158133D01*
X222494360Y-136158133D02*
X222494360Y-136062895D01*
X222494360Y-136062895D02*
X222541979Y-135967657D01*
X222541979Y-135967657D02*
X222589598Y-135920038D01*
X222589598Y-135920038D02*
X222684836Y-135872419D01*
X222684836Y-135872419D02*
X222922931Y-135872419D01*
X222922931Y-135872419D02*
X223065788Y-135920038D01*
X223494360Y-136872419D02*
X223494360Y-135872419D01*
X223494360Y-135872419D02*
X223875312Y-135872419D01*
X223875312Y-135872419D02*
X223970550Y-135920038D01*
X223970550Y-135920038D02*
X224018169Y-135967657D01*
X224018169Y-135967657D02*
X224065788Y-136062895D01*
X224065788Y-136062895D02*
X224065788Y-136205752D01*
X224065788Y-136205752D02*
X224018169Y-136300990D01*
X224018169Y-136300990D02*
X223970550Y-136348609D01*
X223970550Y-136348609D02*
X223875312Y-136396228D01*
X223875312Y-136396228D02*
X223494360Y-136396228D01*
X214494360Y-133872419D02*
X214589598Y-133872419D01*
X214589598Y-133872419D02*
X214684836Y-133920038D01*
X214684836Y-133920038D02*
X214732455Y-133967657D01*
X214732455Y-133967657D02*
X214780074Y-134062895D01*
X214780074Y-134062895D02*
X214827693Y-134253371D01*
X214827693Y-134253371D02*
X214827693Y-134491466D01*
X214827693Y-134491466D02*
X214780074Y-134681942D01*
X214780074Y-134681942D02*
X214732455Y-134777180D01*
X214732455Y-134777180D02*
X214684836Y-134824800D01*
X214684836Y-134824800D02*
X214589598Y-134872419D01*
X214589598Y-134872419D02*
X214494360Y-134872419D01*
X214494360Y-134872419D02*
X214399122Y-134824800D01*
X214399122Y-134824800D02*
X214351503Y-134777180D01*
X214351503Y-134777180D02*
X214303884Y-134681942D01*
X214303884Y-134681942D02*
X214256265Y-134491466D01*
X214256265Y-134491466D02*
X214256265Y-134253371D01*
X214256265Y-134253371D02*
X214303884Y-134062895D01*
X214303884Y-134062895D02*
X214351503Y-133967657D01*
X214351503Y-133967657D02*
X214399122Y-133920038D01*
X214399122Y-133920038D02*
X214494360Y-133872419D01*
X215161027Y-133872419D02*
X215827693Y-133872419D01*
X215827693Y-133872419D02*
X215399122Y-134872419D01*
X216922931Y-133824800D02*
X216065789Y-135110514D01*
X217446741Y-133872419D02*
X217541979Y-133872419D01*
X217541979Y-133872419D02*
X217637217Y-133920038D01*
X217637217Y-133920038D02*
X217684836Y-133967657D01*
X217684836Y-133967657D02*
X217732455Y-134062895D01*
X217732455Y-134062895D02*
X217780074Y-134253371D01*
X217780074Y-134253371D02*
X217780074Y-134491466D01*
X217780074Y-134491466D02*
X217732455Y-134681942D01*
X217732455Y-134681942D02*
X217684836Y-134777180D01*
X217684836Y-134777180D02*
X217637217Y-134824800D01*
X217637217Y-134824800D02*
X217541979Y-134872419D01*
X217541979Y-134872419D02*
X217446741Y-134872419D01*
X217446741Y-134872419D02*
X217351503Y-134824800D01*
X217351503Y-134824800D02*
X217303884Y-134777180D01*
X217303884Y-134777180D02*
X217256265Y-134681942D01*
X217256265Y-134681942D02*
X217208646Y-134491466D01*
X217208646Y-134491466D02*
X217208646Y-134253371D01*
X217208646Y-134253371D02*
X217256265Y-134062895D01*
X217256265Y-134062895D02*
X217303884Y-133967657D01*
X217303884Y-133967657D02*
X217351503Y-133920038D01*
X217351503Y-133920038D02*
X217446741Y-133872419D01*
X218684836Y-133872419D02*
X218208646Y-133872419D01*
X218208646Y-133872419D02*
X218161027Y-134348609D01*
X218161027Y-134348609D02*
X218208646Y-134300990D01*
X218208646Y-134300990D02*
X218303884Y-134253371D01*
X218303884Y-134253371D02*
X218541979Y-134253371D01*
X218541979Y-134253371D02*
X218637217Y-134300990D01*
X218637217Y-134300990D02*
X218684836Y-134348609D01*
X218684836Y-134348609D02*
X218732455Y-134443847D01*
X218732455Y-134443847D02*
X218732455Y-134681942D01*
X218732455Y-134681942D02*
X218684836Y-134777180D01*
X218684836Y-134777180D02*
X218637217Y-134824800D01*
X218637217Y-134824800D02*
X218541979Y-134872419D01*
X218541979Y-134872419D02*
X218303884Y-134872419D01*
X218303884Y-134872419D02*
X218208646Y-134824800D01*
X218208646Y-134824800D02*
X218161027Y-134777180D01*
X219875312Y-133824800D02*
X219018170Y-135110514D01*
X220161027Y-133967657D02*
X220208646Y-133920038D01*
X220208646Y-133920038D02*
X220303884Y-133872419D01*
X220303884Y-133872419D02*
X220541979Y-133872419D01*
X220541979Y-133872419D02*
X220637217Y-133920038D01*
X220637217Y-133920038D02*
X220684836Y-133967657D01*
X220684836Y-133967657D02*
X220732455Y-134062895D01*
X220732455Y-134062895D02*
X220732455Y-134158133D01*
X220732455Y-134158133D02*
X220684836Y-134300990D01*
X220684836Y-134300990D02*
X220113408Y-134872419D01*
X220113408Y-134872419D02*
X220732455Y-134872419D01*
X221351503Y-133872419D02*
X221446741Y-133872419D01*
X221446741Y-133872419D02*
X221541979Y-133920038D01*
X221541979Y-133920038D02*
X221589598Y-133967657D01*
X221589598Y-133967657D02*
X221637217Y-134062895D01*
X221637217Y-134062895D02*
X221684836Y-134253371D01*
X221684836Y-134253371D02*
X221684836Y-134491466D01*
X221684836Y-134491466D02*
X221637217Y-134681942D01*
X221637217Y-134681942D02*
X221589598Y-134777180D01*
X221589598Y-134777180D02*
X221541979Y-134824800D01*
X221541979Y-134824800D02*
X221446741Y-134872419D01*
X221446741Y-134872419D02*
X221351503Y-134872419D01*
X221351503Y-134872419D02*
X221256265Y-134824800D01*
X221256265Y-134824800D02*
X221208646Y-134777180D01*
X221208646Y-134777180D02*
X221161027Y-134681942D01*
X221161027Y-134681942D02*
X221113408Y-134491466D01*
X221113408Y-134491466D02*
X221113408Y-134253371D01*
X221113408Y-134253371D02*
X221161027Y-134062895D01*
X221161027Y-134062895D02*
X221208646Y-133967657D01*
X221208646Y-133967657D02*
X221256265Y-133920038D01*
X221256265Y-133920038D02*
X221351503Y-133872419D01*
X222065789Y-133967657D02*
X222113408Y-133920038D01*
X222113408Y-133920038D02*
X222208646Y-133872419D01*
X222208646Y-133872419D02*
X222446741Y-133872419D01*
X222446741Y-133872419D02*
X222541979Y-133920038D01*
X222541979Y-133920038D02*
X222589598Y-133967657D01*
X222589598Y-133967657D02*
X222637217Y-134062895D01*
X222637217Y-134062895D02*
X222637217Y-134158133D01*
X222637217Y-134158133D02*
X222589598Y-134300990D01*
X222589598Y-134300990D02*
X222018170Y-134872419D01*
X222018170Y-134872419D02*
X222637217Y-134872419D01*
X223541979Y-133872419D02*
X223065789Y-133872419D01*
X223065789Y-133872419D02*
X223018170Y-134348609D01*
X223018170Y-134348609D02*
X223065789Y-134300990D01*
X223065789Y-134300990D02*
X223161027Y-134253371D01*
X223161027Y-134253371D02*
X223399122Y-134253371D01*
X223399122Y-134253371D02*
X223494360Y-134300990D01*
X223494360Y-134300990D02*
X223541979Y-134348609D01*
X223541979Y-134348609D02*
X223589598Y-134443847D01*
X223589598Y-134443847D02*
X223589598Y-134681942D01*
X223589598Y-134681942D02*
X223541979Y-134777180D01*
X223541979Y-134777180D02*
X223494360Y-134824800D01*
X223494360Y-134824800D02*
X223399122Y-134872419D01*
X223399122Y-134872419D02*
X223161027Y-134872419D01*
X223161027Y-134872419D02*
X223065789Y-134824800D01*
X223065789Y-134824800D02*
X223018170Y-134777180D01*
D11*
X213882204Y-132734438D02*
X213215537Y-131782057D01*
X212739347Y-132734438D02*
X212739347Y-130734438D01*
X212739347Y-130734438D02*
X213501252Y-130734438D01*
X213501252Y-130734438D02*
X213691728Y-130829676D01*
X213691728Y-130829676D02*
X213786966Y-130924914D01*
X213786966Y-130924914D02*
X213882204Y-131115390D01*
X213882204Y-131115390D02*
X213882204Y-131401104D01*
X213882204Y-131401104D02*
X213786966Y-131591580D01*
X213786966Y-131591580D02*
X213691728Y-131686819D01*
X213691728Y-131686819D02*
X213501252Y-131782057D01*
X213501252Y-131782057D02*
X212739347Y-131782057D01*
X215025061Y-132734438D02*
X214834585Y-132639200D01*
X214834585Y-132639200D02*
X214739347Y-132543961D01*
X214739347Y-132543961D02*
X214644109Y-132353485D01*
X214644109Y-132353485D02*
X214644109Y-131782057D01*
X214644109Y-131782057D02*
X214739347Y-131591580D01*
X214739347Y-131591580D02*
X214834585Y-131496342D01*
X214834585Y-131496342D02*
X215025061Y-131401104D01*
X215025061Y-131401104D02*
X215310776Y-131401104D01*
X215310776Y-131401104D02*
X215501252Y-131496342D01*
X215501252Y-131496342D02*
X215596490Y-131591580D01*
X215596490Y-131591580D02*
X215691728Y-131782057D01*
X215691728Y-131782057D02*
X215691728Y-132353485D01*
X215691728Y-132353485D02*
X215596490Y-132543961D01*
X215596490Y-132543961D02*
X215501252Y-132639200D01*
X215501252Y-132639200D02*
X215310776Y-132734438D01*
X215310776Y-132734438D02*
X215025061Y-132734438D01*
X216263157Y-131401104D02*
X217025061Y-131401104D01*
X216548871Y-130734438D02*
X216548871Y-132448723D01*
X216548871Y-132448723D02*
X216644109Y-132639200D01*
X216644109Y-132639200D02*
X216834585Y-132734438D01*
X216834585Y-132734438D02*
X217025061Y-132734438D01*
X218548871Y-132734438D02*
X218548871Y-131686819D01*
X218548871Y-131686819D02*
X218453633Y-131496342D01*
X218453633Y-131496342D02*
X218263157Y-131401104D01*
X218263157Y-131401104D02*
X217882204Y-131401104D01*
X217882204Y-131401104D02*
X217691728Y-131496342D01*
X218548871Y-132639200D02*
X218358395Y-132734438D01*
X218358395Y-132734438D02*
X217882204Y-132734438D01*
X217882204Y-132734438D02*
X217691728Y-132639200D01*
X217691728Y-132639200D02*
X217596490Y-132448723D01*
X217596490Y-132448723D02*
X217596490Y-132258247D01*
X217596490Y-132258247D02*
X217691728Y-132067771D01*
X217691728Y-132067771D02*
X217882204Y-131972533D01*
X217882204Y-131972533D02*
X218358395Y-131972533D01*
X218358395Y-131972533D02*
X218548871Y-131877295D01*
X219025062Y-132924914D02*
X220548871Y-132924914D01*
X221025062Y-132734438D02*
X221025062Y-130734438D01*
X221025062Y-130734438D02*
X221786967Y-130734438D01*
X221786967Y-130734438D02*
X221977443Y-130829676D01*
X221977443Y-130829676D02*
X222072681Y-130924914D01*
X222072681Y-130924914D02*
X222167919Y-131115390D01*
X222167919Y-131115390D02*
X222167919Y-131401104D01*
X222167919Y-131401104D02*
X222072681Y-131591580D01*
X222072681Y-131591580D02*
X221977443Y-131686819D01*
X221977443Y-131686819D02*
X221786967Y-131782057D01*
X221786967Y-131782057D02*
X221025062Y-131782057D01*
X223025062Y-132734438D02*
X223025062Y-130734438D01*
D12*
X145433333Y-56554819D02*
X145433333Y-55554819D01*
X145433333Y-55554819D02*
X145766666Y-56269104D01*
X145766666Y-56269104D02*
X146099999Y-55554819D01*
X146099999Y-55554819D02*
X146099999Y-56554819D01*
X146528571Y-55650057D02*
X146576190Y-55602438D01*
X146576190Y-55602438D02*
X146671428Y-55554819D01*
X146671428Y-55554819D02*
X146909523Y-55554819D01*
X146909523Y-55554819D02*
X147004761Y-55602438D01*
X147004761Y-55602438D02*
X147052380Y-55650057D01*
X147052380Y-55650057D02*
X147099999Y-55745295D01*
X147099999Y-55745295D02*
X147099999Y-55840533D01*
X147099999Y-55840533D02*
X147052380Y-55983390D01*
X147052380Y-55983390D02*
X146480952Y-56554819D01*
X146480952Y-56554819D02*
X147099999Y-56554819D01*
X147290476Y-56650057D02*
X148052380Y-56650057D01*
X148814285Y-56554819D02*
X148242857Y-56554819D01*
X148528571Y-56554819D02*
X148528571Y-55554819D01*
X148528571Y-55554819D02*
X148433333Y-55697676D01*
X148433333Y-55697676D02*
X148338095Y-55792914D01*
X148338095Y-55792914D02*
X148242857Y-55840533D01*
X202446660Y-112724104D02*
X202922850Y-112724104D01*
X202351422Y-113009819D02*
X202684755Y-112009819D01*
X202684755Y-112009819D02*
X203018088Y-113009819D01*
X203875231Y-113009819D02*
X203303803Y-113009819D01*
X203589517Y-113009819D02*
X203589517Y-112009819D01*
X203589517Y-112009819D02*
X203494279Y-112152676D01*
X203494279Y-112152676D02*
X203399041Y-112247914D01*
X203399041Y-112247914D02*
X203303803Y-112295533D01*
X145333333Y-138304819D02*
X145333333Y-137304819D01*
X145333333Y-137304819D02*
X145666666Y-138019104D01*
X145666666Y-138019104D02*
X145999999Y-137304819D01*
X145999999Y-137304819D02*
X145999999Y-138304819D01*
X146428571Y-137400057D02*
X146476190Y-137352438D01*
X146476190Y-137352438D02*
X146571428Y-137304819D01*
X146571428Y-137304819D02*
X146809523Y-137304819D01*
X146809523Y-137304819D02*
X146904761Y-137352438D01*
X146904761Y-137352438D02*
X146952380Y-137400057D01*
X146952380Y-137400057D02*
X146999999Y-137495295D01*
X146999999Y-137495295D02*
X146999999Y-137590533D01*
X146999999Y-137590533D02*
X146952380Y-137733390D01*
X146952380Y-137733390D02*
X146380952Y-138304819D01*
X146380952Y-138304819D02*
X146999999Y-138304819D01*
X147190476Y-138400057D02*
X147952380Y-138400057D01*
X148619047Y-137638152D02*
X148619047Y-138304819D01*
X148380952Y-137257200D02*
X148142857Y-137971485D01*
X148142857Y-137971485D02*
X148761904Y-137971485D01*
X157066667Y-119917200D02*
X157209524Y-119964819D01*
X157209524Y-119964819D02*
X157447619Y-119964819D01*
X157447619Y-119964819D02*
X157542857Y-119917200D01*
X157542857Y-119917200D02*
X157590476Y-119869580D01*
X157590476Y-119869580D02*
X157638095Y-119774342D01*
X157638095Y-119774342D02*
X157638095Y-119679104D01*
X157638095Y-119679104D02*
X157590476Y-119583866D01*
X157590476Y-119583866D02*
X157542857Y-119536247D01*
X157542857Y-119536247D02*
X157447619Y-119488628D01*
X157447619Y-119488628D02*
X157257143Y-119441009D01*
X157257143Y-119441009D02*
X157161905Y-119393390D01*
X157161905Y-119393390D02*
X157114286Y-119345771D01*
X157114286Y-119345771D02*
X157066667Y-119250533D01*
X157066667Y-119250533D02*
X157066667Y-119155295D01*
X157066667Y-119155295D02*
X157114286Y-119060057D01*
X157114286Y-119060057D02*
X157161905Y-119012438D01*
X157161905Y-119012438D02*
X157257143Y-118964819D01*
X157257143Y-118964819D02*
X157495238Y-118964819D01*
X157495238Y-118964819D02*
X157638095Y-119012438D01*
X157971429Y-118964819D02*
X158209524Y-119964819D01*
X158209524Y-119964819D02*
X158400000Y-119250533D01*
X158400000Y-119250533D02*
X158590476Y-119964819D01*
X158590476Y-119964819D02*
X158828572Y-118964819D01*
X159352381Y-119393390D02*
X159257143Y-119345771D01*
X159257143Y-119345771D02*
X159209524Y-119298152D01*
X159209524Y-119298152D02*
X159161905Y-119202914D01*
X159161905Y-119202914D02*
X159161905Y-119155295D01*
X159161905Y-119155295D02*
X159209524Y-119060057D01*
X159209524Y-119060057D02*
X159257143Y-119012438D01*
X159257143Y-119012438D02*
X159352381Y-118964819D01*
X159352381Y-118964819D02*
X159542857Y-118964819D01*
X159542857Y-118964819D02*
X159638095Y-119012438D01*
X159638095Y-119012438D02*
X159685714Y-119060057D01*
X159685714Y-119060057D02*
X159733333Y-119155295D01*
X159733333Y-119155295D02*
X159733333Y-119202914D01*
X159733333Y-119202914D02*
X159685714Y-119298152D01*
X159685714Y-119298152D02*
X159638095Y-119345771D01*
X159638095Y-119345771D02*
X159542857Y-119393390D01*
X159542857Y-119393390D02*
X159352381Y-119393390D01*
X159352381Y-119393390D02*
X159257143Y-119441009D01*
X159257143Y-119441009D02*
X159209524Y-119488628D01*
X159209524Y-119488628D02*
X159161905Y-119583866D01*
X159161905Y-119583866D02*
X159161905Y-119774342D01*
X159161905Y-119774342D02*
X159209524Y-119869580D01*
X159209524Y-119869580D02*
X159257143Y-119917200D01*
X159257143Y-119917200D02*
X159352381Y-119964819D01*
X159352381Y-119964819D02*
X159542857Y-119964819D01*
X159542857Y-119964819D02*
X159638095Y-119917200D01*
X159638095Y-119917200D02*
X159685714Y-119869580D01*
X159685714Y-119869580D02*
X159733333Y-119774342D01*
X159733333Y-119774342D02*
X159733333Y-119583866D01*
X159733333Y-119583866D02*
X159685714Y-119488628D01*
X159685714Y-119488628D02*
X159638095Y-119441009D01*
X159638095Y-119441009D02*
X159542857Y-119393390D01*
X229333333Y-138304819D02*
X229333333Y-137304819D01*
X229333333Y-137304819D02*
X229666666Y-138019104D01*
X229666666Y-138019104D02*
X229999999Y-137304819D01*
X229999999Y-137304819D02*
X229999999Y-138304819D01*
X230428571Y-137400057D02*
X230476190Y-137352438D01*
X230476190Y-137352438D02*
X230571428Y-137304819D01*
X230571428Y-137304819D02*
X230809523Y-137304819D01*
X230809523Y-137304819D02*
X230904761Y-137352438D01*
X230904761Y-137352438D02*
X230952380Y-137400057D01*
X230952380Y-137400057D02*
X230999999Y-137495295D01*
X230999999Y-137495295D02*
X230999999Y-137590533D01*
X230999999Y-137590533D02*
X230952380Y-137733390D01*
X230952380Y-137733390D02*
X230380952Y-138304819D01*
X230380952Y-138304819D02*
X230999999Y-138304819D01*
X231190476Y-138400057D02*
X231952380Y-138400057D01*
X232095238Y-137304819D02*
X232714285Y-137304819D01*
X232714285Y-137304819D02*
X232380952Y-137685771D01*
X232380952Y-137685771D02*
X232523809Y-137685771D01*
X232523809Y-137685771D02*
X232619047Y-137733390D01*
X232619047Y-137733390D02*
X232666666Y-137781009D01*
X232666666Y-137781009D02*
X232714285Y-137876247D01*
X232714285Y-137876247D02*
X232714285Y-138114342D01*
X232714285Y-138114342D02*
X232666666Y-138209580D01*
X232666666Y-138209580D02*
X232619047Y-138257200D01*
X232619047Y-138257200D02*
X232523809Y-138304819D01*
X232523809Y-138304819D02*
X232238095Y-138304819D01*
X232238095Y-138304819D02*
X232142857Y-138257200D01*
X232142857Y-138257200D02*
X232095238Y-138209580D01*
X165856667Y-98517200D02*
X165999524Y-98564819D01*
X165999524Y-98564819D02*
X166237619Y-98564819D01*
X166237619Y-98564819D02*
X166332857Y-98517200D01*
X166332857Y-98517200D02*
X166380476Y-98469580D01*
X166380476Y-98469580D02*
X166428095Y-98374342D01*
X166428095Y-98374342D02*
X166428095Y-98279104D01*
X166428095Y-98279104D02*
X166380476Y-98183866D01*
X166380476Y-98183866D02*
X166332857Y-98136247D01*
X166332857Y-98136247D02*
X166237619Y-98088628D01*
X166237619Y-98088628D02*
X166047143Y-98041009D01*
X166047143Y-98041009D02*
X165951905Y-97993390D01*
X165951905Y-97993390D02*
X165904286Y-97945771D01*
X165904286Y-97945771D02*
X165856667Y-97850533D01*
X165856667Y-97850533D02*
X165856667Y-97755295D01*
X165856667Y-97755295D02*
X165904286Y-97660057D01*
X165904286Y-97660057D02*
X165951905Y-97612438D01*
X165951905Y-97612438D02*
X166047143Y-97564819D01*
X166047143Y-97564819D02*
X166285238Y-97564819D01*
X166285238Y-97564819D02*
X166428095Y-97612438D01*
X166761429Y-97564819D02*
X166999524Y-98564819D01*
X166999524Y-98564819D02*
X167190000Y-97850533D01*
X167190000Y-97850533D02*
X167380476Y-98564819D01*
X167380476Y-98564819D02*
X167618572Y-97564819D01*
X168428095Y-97898152D02*
X168428095Y-98564819D01*
X168190000Y-97517200D02*
X167951905Y-98231485D01*
X167951905Y-98231485D02*
X168570952Y-98231485D01*
X213954819Y-70661904D02*
X212954819Y-70661904D01*
X212954819Y-70661904D02*
X213669104Y-70328571D01*
X213669104Y-70328571D02*
X212954819Y-69995238D01*
X212954819Y-69995238D02*
X213954819Y-69995238D01*
X213431009Y-69519047D02*
X213431009Y-69185714D01*
X213954819Y-69042857D02*
X213954819Y-69519047D01*
X213954819Y-69519047D02*
X212954819Y-69519047D01*
X212954819Y-69519047D02*
X212954819Y-69042857D01*
X213050057Y-68661904D02*
X213002438Y-68614285D01*
X213002438Y-68614285D02*
X212954819Y-68519047D01*
X212954819Y-68519047D02*
X212954819Y-68280952D01*
X212954819Y-68280952D02*
X213002438Y-68185714D01*
X213002438Y-68185714D02*
X213050057Y-68138095D01*
X213050057Y-68138095D02*
X213145295Y-68090476D01*
X213145295Y-68090476D02*
X213240533Y-68090476D01*
X213240533Y-68090476D02*
X213383390Y-68138095D01*
X213383390Y-68138095D02*
X213954819Y-68709523D01*
X213954819Y-68709523D02*
X213954819Y-68090476D01*
D10*
X189080476Y-119009800D02*
X189223333Y-119057419D01*
X189223333Y-119057419D02*
X189461428Y-119057419D01*
X189461428Y-119057419D02*
X189556666Y-119009800D01*
X189556666Y-119009800D02*
X189604285Y-118962180D01*
X189604285Y-118962180D02*
X189651904Y-118866942D01*
X189651904Y-118866942D02*
X189651904Y-118771704D01*
X189651904Y-118771704D02*
X189604285Y-118676466D01*
X189604285Y-118676466D02*
X189556666Y-118628847D01*
X189556666Y-118628847D02*
X189461428Y-118581228D01*
X189461428Y-118581228D02*
X189270952Y-118533609D01*
X189270952Y-118533609D02*
X189175714Y-118485990D01*
X189175714Y-118485990D02*
X189128095Y-118438371D01*
X189128095Y-118438371D02*
X189080476Y-118343133D01*
X189080476Y-118343133D02*
X189080476Y-118247895D01*
X189080476Y-118247895D02*
X189128095Y-118152657D01*
X189128095Y-118152657D02*
X189175714Y-118105038D01*
X189175714Y-118105038D02*
X189270952Y-118057419D01*
X189270952Y-118057419D02*
X189509047Y-118057419D01*
X189509047Y-118057419D02*
X189651904Y-118105038D01*
X189985238Y-118057419D02*
X190223333Y-119057419D01*
X190223333Y-119057419D02*
X190413809Y-118343133D01*
X190413809Y-118343133D02*
X190604285Y-119057419D01*
X190604285Y-119057419D02*
X190842381Y-118057419D01*
X191747142Y-119057419D02*
X191175714Y-119057419D01*
X191461428Y-119057419D02*
X191461428Y-118057419D01*
X191461428Y-118057419D02*
X191366190Y-118200276D01*
X191366190Y-118200276D02*
X191270952Y-118295514D01*
X191270952Y-118295514D02*
X191175714Y-118343133D01*
X192366190Y-118057419D02*
X192461428Y-118057419D01*
X192461428Y-118057419D02*
X192556666Y-118105038D01*
X192556666Y-118105038D02*
X192604285Y-118152657D01*
X192604285Y-118152657D02*
X192651904Y-118247895D01*
X192651904Y-118247895D02*
X192699523Y-118438371D01*
X192699523Y-118438371D02*
X192699523Y-118676466D01*
X192699523Y-118676466D02*
X192651904Y-118866942D01*
X192651904Y-118866942D02*
X192604285Y-118962180D01*
X192604285Y-118962180D02*
X192556666Y-119009800D01*
X192556666Y-119009800D02*
X192461428Y-119057419D01*
X192461428Y-119057419D02*
X192366190Y-119057419D01*
X192366190Y-119057419D02*
X192270952Y-119009800D01*
X192270952Y-119009800D02*
X192223333Y-118962180D01*
X192223333Y-118962180D02*
X192175714Y-118866942D01*
X192175714Y-118866942D02*
X192128095Y-118676466D01*
X192128095Y-118676466D02*
X192128095Y-118438371D01*
X192128095Y-118438371D02*
X192175714Y-118247895D01*
X192175714Y-118247895D02*
X192223333Y-118152657D01*
X192223333Y-118152657D02*
X192270952Y-118105038D01*
X192270952Y-118105038D02*
X192366190Y-118057419D01*
D12*
X161061905Y-59274819D02*
X161061905Y-58274819D01*
X161061905Y-58274819D02*
X161300000Y-58274819D01*
X161300000Y-58274819D02*
X161442857Y-58322438D01*
X161442857Y-58322438D02*
X161538095Y-58417676D01*
X161538095Y-58417676D02*
X161585714Y-58512914D01*
X161585714Y-58512914D02*
X161633333Y-58703390D01*
X161633333Y-58703390D02*
X161633333Y-58846247D01*
X161633333Y-58846247D02*
X161585714Y-59036723D01*
X161585714Y-59036723D02*
X161538095Y-59131961D01*
X161538095Y-59131961D02*
X161442857Y-59227200D01*
X161442857Y-59227200D02*
X161300000Y-59274819D01*
X161300000Y-59274819D02*
X161061905Y-59274819D01*
X162585714Y-58322438D02*
X162490476Y-58274819D01*
X162490476Y-58274819D02*
X162347619Y-58274819D01*
X162347619Y-58274819D02*
X162204762Y-58322438D01*
X162204762Y-58322438D02*
X162109524Y-58417676D01*
X162109524Y-58417676D02*
X162061905Y-58512914D01*
X162061905Y-58512914D02*
X162014286Y-58703390D01*
X162014286Y-58703390D02*
X162014286Y-58846247D01*
X162014286Y-58846247D02*
X162061905Y-59036723D01*
X162061905Y-59036723D02*
X162109524Y-59131961D01*
X162109524Y-59131961D02*
X162204762Y-59227200D01*
X162204762Y-59227200D02*
X162347619Y-59274819D01*
X162347619Y-59274819D02*
X162442857Y-59274819D01*
X162442857Y-59274819D02*
X162585714Y-59227200D01*
X162585714Y-59227200D02*
X162633333Y-59179580D01*
X162633333Y-59179580D02*
X162633333Y-58846247D01*
X162633333Y-58846247D02*
X162442857Y-58846247D01*
X163585714Y-59274819D02*
X163014286Y-59274819D01*
X163300000Y-59274819D02*
X163300000Y-58274819D01*
X163300000Y-58274819D02*
X163204762Y-58417676D01*
X163204762Y-58417676D02*
X163109524Y-58512914D01*
X163109524Y-58512914D02*
X163014286Y-58560533D01*
X213764819Y-98261904D02*
X212764819Y-98261904D01*
X212764819Y-98261904D02*
X213479104Y-97928571D01*
X213479104Y-97928571D02*
X212764819Y-97595238D01*
X212764819Y-97595238D02*
X213764819Y-97595238D01*
X213241009Y-97119047D02*
X213241009Y-96785714D01*
X213764819Y-96642857D02*
X213764819Y-97119047D01*
X213764819Y-97119047D02*
X212764819Y-97119047D01*
X212764819Y-97119047D02*
X212764819Y-96642857D01*
X213764819Y-95690476D02*
X213764819Y-96261904D01*
X213764819Y-95976190D02*
X212764819Y-95976190D01*
X212764819Y-95976190D02*
X212907676Y-96071428D01*
X212907676Y-96071428D02*
X213002914Y-96166666D01*
X213002914Y-96166666D02*
X213050533Y-96261904D01*
X156556667Y-78517200D02*
X156699524Y-78564819D01*
X156699524Y-78564819D02*
X156937619Y-78564819D01*
X156937619Y-78564819D02*
X157032857Y-78517200D01*
X157032857Y-78517200D02*
X157080476Y-78469580D01*
X157080476Y-78469580D02*
X157128095Y-78374342D01*
X157128095Y-78374342D02*
X157128095Y-78279104D01*
X157128095Y-78279104D02*
X157080476Y-78183866D01*
X157080476Y-78183866D02*
X157032857Y-78136247D01*
X157032857Y-78136247D02*
X156937619Y-78088628D01*
X156937619Y-78088628D02*
X156747143Y-78041009D01*
X156747143Y-78041009D02*
X156651905Y-77993390D01*
X156651905Y-77993390D02*
X156604286Y-77945771D01*
X156604286Y-77945771D02*
X156556667Y-77850533D01*
X156556667Y-77850533D02*
X156556667Y-77755295D01*
X156556667Y-77755295D02*
X156604286Y-77660057D01*
X156604286Y-77660057D02*
X156651905Y-77612438D01*
X156651905Y-77612438D02*
X156747143Y-77564819D01*
X156747143Y-77564819D02*
X156985238Y-77564819D01*
X156985238Y-77564819D02*
X157128095Y-77612438D01*
X157461429Y-77564819D02*
X157699524Y-78564819D01*
X157699524Y-78564819D02*
X157890000Y-77850533D01*
X157890000Y-77850533D02*
X158080476Y-78564819D01*
X158080476Y-78564819D02*
X158318572Y-77564819D01*
X158651905Y-77660057D02*
X158699524Y-77612438D01*
X158699524Y-77612438D02*
X158794762Y-77564819D01*
X158794762Y-77564819D02*
X159032857Y-77564819D01*
X159032857Y-77564819D02*
X159128095Y-77612438D01*
X159128095Y-77612438D02*
X159175714Y-77660057D01*
X159175714Y-77660057D02*
X159223333Y-77755295D01*
X159223333Y-77755295D02*
X159223333Y-77850533D01*
X159223333Y-77850533D02*
X159175714Y-77993390D01*
X159175714Y-77993390D02*
X158604286Y-78564819D01*
X158604286Y-78564819D02*
X159223333Y-78564819D01*
X229433333Y-56654819D02*
X229433333Y-55654819D01*
X229433333Y-55654819D02*
X229766666Y-56369104D01*
X229766666Y-56369104D02*
X230099999Y-55654819D01*
X230099999Y-55654819D02*
X230099999Y-56654819D01*
X230528571Y-55750057D02*
X230576190Y-55702438D01*
X230576190Y-55702438D02*
X230671428Y-55654819D01*
X230671428Y-55654819D02*
X230909523Y-55654819D01*
X230909523Y-55654819D02*
X231004761Y-55702438D01*
X231004761Y-55702438D02*
X231052380Y-55750057D01*
X231052380Y-55750057D02*
X231099999Y-55845295D01*
X231099999Y-55845295D02*
X231099999Y-55940533D01*
X231099999Y-55940533D02*
X231052380Y-56083390D01*
X231052380Y-56083390D02*
X230480952Y-56654819D01*
X230480952Y-56654819D02*
X231099999Y-56654819D01*
X231290476Y-56750057D02*
X232052380Y-56750057D01*
X232242857Y-55750057D02*
X232290476Y-55702438D01*
X232290476Y-55702438D02*
X232385714Y-55654819D01*
X232385714Y-55654819D02*
X232623809Y-55654819D01*
X232623809Y-55654819D02*
X232719047Y-55702438D01*
X232719047Y-55702438D02*
X232766666Y-55750057D01*
X232766666Y-55750057D02*
X232814285Y-55845295D01*
X232814285Y-55845295D02*
X232814285Y-55940533D01*
X232814285Y-55940533D02*
X232766666Y-56083390D01*
X232766666Y-56083390D02*
X232195238Y-56654819D01*
X232195238Y-56654819D02*
X232814285Y-56654819D01*
X165556667Y-78517200D02*
X165699524Y-78564819D01*
X165699524Y-78564819D02*
X165937619Y-78564819D01*
X165937619Y-78564819D02*
X166032857Y-78517200D01*
X166032857Y-78517200D02*
X166080476Y-78469580D01*
X166080476Y-78469580D02*
X166128095Y-78374342D01*
X166128095Y-78374342D02*
X166128095Y-78279104D01*
X166128095Y-78279104D02*
X166080476Y-78183866D01*
X166080476Y-78183866D02*
X166032857Y-78136247D01*
X166032857Y-78136247D02*
X165937619Y-78088628D01*
X165937619Y-78088628D02*
X165747143Y-78041009D01*
X165747143Y-78041009D02*
X165651905Y-77993390D01*
X165651905Y-77993390D02*
X165604286Y-77945771D01*
X165604286Y-77945771D02*
X165556667Y-77850533D01*
X165556667Y-77850533D02*
X165556667Y-77755295D01*
X165556667Y-77755295D02*
X165604286Y-77660057D01*
X165604286Y-77660057D02*
X165651905Y-77612438D01*
X165651905Y-77612438D02*
X165747143Y-77564819D01*
X165747143Y-77564819D02*
X165985238Y-77564819D01*
X165985238Y-77564819D02*
X166128095Y-77612438D01*
X166461429Y-77564819D02*
X166699524Y-78564819D01*
X166699524Y-78564819D02*
X166890000Y-77850533D01*
X166890000Y-77850533D02*
X167080476Y-78564819D01*
X167080476Y-78564819D02*
X167318572Y-77564819D01*
X168223333Y-78564819D02*
X167651905Y-78564819D01*
X167937619Y-78564819D02*
X167937619Y-77564819D01*
X167937619Y-77564819D02*
X167842381Y-77707676D01*
X167842381Y-77707676D02*
X167747143Y-77802914D01*
X167747143Y-77802914D02*
X167651905Y-77850533D01*
D10*
X213409800Y-124309523D02*
X213457419Y-124166666D01*
X213457419Y-124166666D02*
X213457419Y-123928571D01*
X213457419Y-123928571D02*
X213409800Y-123833333D01*
X213409800Y-123833333D02*
X213362180Y-123785714D01*
X213362180Y-123785714D02*
X213266942Y-123738095D01*
X213266942Y-123738095D02*
X213171704Y-123738095D01*
X213171704Y-123738095D02*
X213076466Y-123785714D01*
X213076466Y-123785714D02*
X213028847Y-123833333D01*
X213028847Y-123833333D02*
X212981228Y-123928571D01*
X212981228Y-123928571D02*
X212933609Y-124119047D01*
X212933609Y-124119047D02*
X212885990Y-124214285D01*
X212885990Y-124214285D02*
X212838371Y-124261904D01*
X212838371Y-124261904D02*
X212743133Y-124309523D01*
X212743133Y-124309523D02*
X212647895Y-124309523D01*
X212647895Y-124309523D02*
X212552657Y-124261904D01*
X212552657Y-124261904D02*
X212505038Y-124214285D01*
X212505038Y-124214285D02*
X212457419Y-124119047D01*
X212457419Y-124119047D02*
X212457419Y-123880952D01*
X212457419Y-123880952D02*
X212505038Y-123738095D01*
X212457419Y-123404761D02*
X213457419Y-123166666D01*
X213457419Y-123166666D02*
X212743133Y-122976190D01*
X212743133Y-122976190D02*
X213457419Y-122785714D01*
X213457419Y-122785714D02*
X212457419Y-122547619D01*
X213457419Y-121642857D02*
X213457419Y-122214285D01*
X213457419Y-121928571D02*
X212457419Y-121928571D01*
X212457419Y-121928571D02*
X212600276Y-122023809D01*
X212600276Y-122023809D02*
X212695514Y-122119047D01*
X212695514Y-122119047D02*
X212743133Y-122214285D01*
X213457419Y-120690476D02*
X213457419Y-121261904D01*
X213457419Y-120976190D02*
X212457419Y-120976190D01*
X212457419Y-120976190D02*
X212600276Y-121071428D01*
X212600276Y-121071428D02*
X212695514Y-121166666D01*
X212695514Y-121166666D02*
X212743133Y-121261904D01*
D12*
X148366667Y-119917200D02*
X148509524Y-119964819D01*
X148509524Y-119964819D02*
X148747619Y-119964819D01*
X148747619Y-119964819D02*
X148842857Y-119917200D01*
X148842857Y-119917200D02*
X148890476Y-119869580D01*
X148890476Y-119869580D02*
X148938095Y-119774342D01*
X148938095Y-119774342D02*
X148938095Y-119679104D01*
X148938095Y-119679104D02*
X148890476Y-119583866D01*
X148890476Y-119583866D02*
X148842857Y-119536247D01*
X148842857Y-119536247D02*
X148747619Y-119488628D01*
X148747619Y-119488628D02*
X148557143Y-119441009D01*
X148557143Y-119441009D02*
X148461905Y-119393390D01*
X148461905Y-119393390D02*
X148414286Y-119345771D01*
X148414286Y-119345771D02*
X148366667Y-119250533D01*
X148366667Y-119250533D02*
X148366667Y-119155295D01*
X148366667Y-119155295D02*
X148414286Y-119060057D01*
X148414286Y-119060057D02*
X148461905Y-119012438D01*
X148461905Y-119012438D02*
X148557143Y-118964819D01*
X148557143Y-118964819D02*
X148795238Y-118964819D01*
X148795238Y-118964819D02*
X148938095Y-119012438D01*
X149271429Y-118964819D02*
X149509524Y-119964819D01*
X149509524Y-119964819D02*
X149700000Y-119250533D01*
X149700000Y-119250533D02*
X149890476Y-119964819D01*
X149890476Y-119964819D02*
X150128572Y-118964819D01*
X150414286Y-118964819D02*
X151080952Y-118964819D01*
X151080952Y-118964819D02*
X150652381Y-119964819D01*
X147856667Y-98517200D02*
X147999524Y-98564819D01*
X147999524Y-98564819D02*
X148237619Y-98564819D01*
X148237619Y-98564819D02*
X148332857Y-98517200D01*
X148332857Y-98517200D02*
X148380476Y-98469580D01*
X148380476Y-98469580D02*
X148428095Y-98374342D01*
X148428095Y-98374342D02*
X148428095Y-98279104D01*
X148428095Y-98279104D02*
X148380476Y-98183866D01*
X148380476Y-98183866D02*
X148332857Y-98136247D01*
X148332857Y-98136247D02*
X148237619Y-98088628D01*
X148237619Y-98088628D02*
X148047143Y-98041009D01*
X148047143Y-98041009D02*
X147951905Y-97993390D01*
X147951905Y-97993390D02*
X147904286Y-97945771D01*
X147904286Y-97945771D02*
X147856667Y-97850533D01*
X147856667Y-97850533D02*
X147856667Y-97755295D01*
X147856667Y-97755295D02*
X147904286Y-97660057D01*
X147904286Y-97660057D02*
X147951905Y-97612438D01*
X147951905Y-97612438D02*
X148047143Y-97564819D01*
X148047143Y-97564819D02*
X148285238Y-97564819D01*
X148285238Y-97564819D02*
X148428095Y-97612438D01*
X148761429Y-97564819D02*
X148999524Y-98564819D01*
X148999524Y-98564819D02*
X149190000Y-97850533D01*
X149190000Y-97850533D02*
X149380476Y-98564819D01*
X149380476Y-98564819D02*
X149618572Y-97564819D01*
X150428095Y-97564819D02*
X150237619Y-97564819D01*
X150237619Y-97564819D02*
X150142381Y-97612438D01*
X150142381Y-97612438D02*
X150094762Y-97660057D01*
X150094762Y-97660057D02*
X149999524Y-97802914D01*
X149999524Y-97802914D02*
X149951905Y-97993390D01*
X149951905Y-97993390D02*
X149951905Y-98374342D01*
X149951905Y-98374342D02*
X149999524Y-98469580D01*
X149999524Y-98469580D02*
X150047143Y-98517200D01*
X150047143Y-98517200D02*
X150142381Y-98564819D01*
X150142381Y-98564819D02*
X150332857Y-98564819D01*
X150332857Y-98564819D02*
X150428095Y-98517200D01*
X150428095Y-98517200D02*
X150475714Y-98469580D01*
X150475714Y-98469580D02*
X150523333Y-98374342D01*
X150523333Y-98374342D02*
X150523333Y-98136247D01*
X150523333Y-98136247D02*
X150475714Y-98041009D01*
X150475714Y-98041009D02*
X150428095Y-97993390D01*
X150428095Y-97993390D02*
X150332857Y-97945771D01*
X150332857Y-97945771D02*
X150142381Y-97945771D01*
X150142381Y-97945771D02*
X150047143Y-97993390D01*
X150047143Y-97993390D02*
X149999524Y-98041009D01*
X149999524Y-98041009D02*
X149951905Y-98136247D01*
X213764819Y-83595238D02*
X213288628Y-83928571D01*
X213764819Y-84166666D02*
X212764819Y-84166666D01*
X212764819Y-84166666D02*
X212764819Y-83785714D01*
X212764819Y-83785714D02*
X212812438Y-83690476D01*
X212812438Y-83690476D02*
X212860057Y-83642857D01*
X212860057Y-83642857D02*
X212955295Y-83595238D01*
X212955295Y-83595238D02*
X213098152Y-83595238D01*
X213098152Y-83595238D02*
X213193390Y-83642857D01*
X213193390Y-83642857D02*
X213241009Y-83690476D01*
X213241009Y-83690476D02*
X213288628Y-83785714D01*
X213288628Y-83785714D02*
X213288628Y-84166666D01*
X212764819Y-83309523D02*
X213764819Y-82976190D01*
X213764819Y-82976190D02*
X212764819Y-82642857D01*
X213764819Y-81785714D02*
X213764819Y-82357142D01*
X213764819Y-82071428D02*
X212764819Y-82071428D01*
X212764819Y-82071428D02*
X212907676Y-82166666D01*
X212907676Y-82166666D02*
X213002914Y-82261904D01*
X213002914Y-82261904D02*
X213050533Y-82357142D01*
X147556667Y-78517200D02*
X147699524Y-78564819D01*
X147699524Y-78564819D02*
X147937619Y-78564819D01*
X147937619Y-78564819D02*
X148032857Y-78517200D01*
X148032857Y-78517200D02*
X148080476Y-78469580D01*
X148080476Y-78469580D02*
X148128095Y-78374342D01*
X148128095Y-78374342D02*
X148128095Y-78279104D01*
X148128095Y-78279104D02*
X148080476Y-78183866D01*
X148080476Y-78183866D02*
X148032857Y-78136247D01*
X148032857Y-78136247D02*
X147937619Y-78088628D01*
X147937619Y-78088628D02*
X147747143Y-78041009D01*
X147747143Y-78041009D02*
X147651905Y-77993390D01*
X147651905Y-77993390D02*
X147604286Y-77945771D01*
X147604286Y-77945771D02*
X147556667Y-77850533D01*
X147556667Y-77850533D02*
X147556667Y-77755295D01*
X147556667Y-77755295D02*
X147604286Y-77660057D01*
X147604286Y-77660057D02*
X147651905Y-77612438D01*
X147651905Y-77612438D02*
X147747143Y-77564819D01*
X147747143Y-77564819D02*
X147985238Y-77564819D01*
X147985238Y-77564819D02*
X148128095Y-77612438D01*
X148461429Y-77564819D02*
X148699524Y-78564819D01*
X148699524Y-78564819D02*
X148890000Y-77850533D01*
X148890000Y-77850533D02*
X149080476Y-78564819D01*
X149080476Y-78564819D02*
X149318572Y-77564819D01*
X149604286Y-77564819D02*
X150223333Y-77564819D01*
X150223333Y-77564819D02*
X149890000Y-77945771D01*
X149890000Y-77945771D02*
X150032857Y-77945771D01*
X150032857Y-77945771D02*
X150128095Y-77993390D01*
X150128095Y-77993390D02*
X150175714Y-78041009D01*
X150175714Y-78041009D02*
X150223333Y-78136247D01*
X150223333Y-78136247D02*
X150223333Y-78374342D01*
X150223333Y-78374342D02*
X150175714Y-78469580D01*
X150175714Y-78469580D02*
X150128095Y-78517200D01*
X150128095Y-78517200D02*
X150032857Y-78564819D01*
X150032857Y-78564819D02*
X149747143Y-78564819D01*
X149747143Y-78564819D02*
X149651905Y-78517200D01*
X149651905Y-78517200D02*
X149604286Y-78469580D01*
X156856667Y-98517200D02*
X156999524Y-98564819D01*
X156999524Y-98564819D02*
X157237619Y-98564819D01*
X157237619Y-98564819D02*
X157332857Y-98517200D01*
X157332857Y-98517200D02*
X157380476Y-98469580D01*
X157380476Y-98469580D02*
X157428095Y-98374342D01*
X157428095Y-98374342D02*
X157428095Y-98279104D01*
X157428095Y-98279104D02*
X157380476Y-98183866D01*
X157380476Y-98183866D02*
X157332857Y-98136247D01*
X157332857Y-98136247D02*
X157237619Y-98088628D01*
X157237619Y-98088628D02*
X157047143Y-98041009D01*
X157047143Y-98041009D02*
X156951905Y-97993390D01*
X156951905Y-97993390D02*
X156904286Y-97945771D01*
X156904286Y-97945771D02*
X156856667Y-97850533D01*
X156856667Y-97850533D02*
X156856667Y-97755295D01*
X156856667Y-97755295D02*
X156904286Y-97660057D01*
X156904286Y-97660057D02*
X156951905Y-97612438D01*
X156951905Y-97612438D02*
X157047143Y-97564819D01*
X157047143Y-97564819D02*
X157285238Y-97564819D01*
X157285238Y-97564819D02*
X157428095Y-97612438D01*
X157761429Y-97564819D02*
X157999524Y-98564819D01*
X157999524Y-98564819D02*
X158190000Y-97850533D01*
X158190000Y-97850533D02*
X158380476Y-98564819D01*
X158380476Y-98564819D02*
X158618572Y-97564819D01*
X159475714Y-97564819D02*
X158999524Y-97564819D01*
X158999524Y-97564819D02*
X158951905Y-98041009D01*
X158951905Y-98041009D02*
X158999524Y-97993390D01*
X158999524Y-97993390D02*
X159094762Y-97945771D01*
X159094762Y-97945771D02*
X159332857Y-97945771D01*
X159332857Y-97945771D02*
X159428095Y-97993390D01*
X159428095Y-97993390D02*
X159475714Y-98041009D01*
X159475714Y-98041009D02*
X159523333Y-98136247D01*
X159523333Y-98136247D02*
X159523333Y-98374342D01*
X159523333Y-98374342D02*
X159475714Y-98469580D01*
X159475714Y-98469580D02*
X159428095Y-98517200D01*
X159428095Y-98517200D02*
X159332857Y-98564819D01*
X159332857Y-98564819D02*
X159094762Y-98564819D01*
X159094762Y-98564819D02*
X158999524Y-98517200D01*
X158999524Y-98517200D02*
X158951905Y-98469580D01*
D10*
X166356667Y-119409800D02*
X166499524Y-119457419D01*
X166499524Y-119457419D02*
X166737619Y-119457419D01*
X166737619Y-119457419D02*
X166832857Y-119409800D01*
X166832857Y-119409800D02*
X166880476Y-119362180D01*
X166880476Y-119362180D02*
X166928095Y-119266942D01*
X166928095Y-119266942D02*
X166928095Y-119171704D01*
X166928095Y-119171704D02*
X166880476Y-119076466D01*
X166880476Y-119076466D02*
X166832857Y-119028847D01*
X166832857Y-119028847D02*
X166737619Y-118981228D01*
X166737619Y-118981228D02*
X166547143Y-118933609D01*
X166547143Y-118933609D02*
X166451905Y-118885990D01*
X166451905Y-118885990D02*
X166404286Y-118838371D01*
X166404286Y-118838371D02*
X166356667Y-118743133D01*
X166356667Y-118743133D02*
X166356667Y-118647895D01*
X166356667Y-118647895D02*
X166404286Y-118552657D01*
X166404286Y-118552657D02*
X166451905Y-118505038D01*
X166451905Y-118505038D02*
X166547143Y-118457419D01*
X166547143Y-118457419D02*
X166785238Y-118457419D01*
X166785238Y-118457419D02*
X166928095Y-118505038D01*
X167261429Y-118457419D02*
X167499524Y-119457419D01*
X167499524Y-119457419D02*
X167690000Y-118743133D01*
X167690000Y-118743133D02*
X167880476Y-119457419D01*
X167880476Y-119457419D02*
X168118572Y-118457419D01*
X168547143Y-119457419D02*
X168737619Y-119457419D01*
X168737619Y-119457419D02*
X168832857Y-119409800D01*
X168832857Y-119409800D02*
X168880476Y-119362180D01*
X168880476Y-119362180D02*
X168975714Y-119219323D01*
X168975714Y-119219323D02*
X169023333Y-119028847D01*
X169023333Y-119028847D02*
X169023333Y-118647895D01*
X169023333Y-118647895D02*
X168975714Y-118552657D01*
X168975714Y-118552657D02*
X168928095Y-118505038D01*
X168928095Y-118505038D02*
X168832857Y-118457419D01*
X168832857Y-118457419D02*
X168642381Y-118457419D01*
X168642381Y-118457419D02*
X168547143Y-118505038D01*
X168547143Y-118505038D02*
X168499524Y-118552657D01*
X168499524Y-118552657D02*
X168451905Y-118647895D01*
X168451905Y-118647895D02*
X168451905Y-118885990D01*
X168451905Y-118885990D02*
X168499524Y-118981228D01*
X168499524Y-118981228D02*
X168547143Y-119028847D01*
X168547143Y-119028847D02*
X168642381Y-119076466D01*
X168642381Y-119076466D02*
X168832857Y-119076466D01*
X168832857Y-119076466D02*
X168928095Y-119028847D01*
X168928095Y-119028847D02*
X168975714Y-118981228D01*
X168975714Y-118981228D02*
X169023333Y-118885990D01*
D13*
%TO.C,A1*%
X179480000Y-64460000D02*
X179480000Y-62860000D01*
X179800000Y-62790000D02*
X179800000Y-112790000D01*
X180140000Y-62243000D02*
X180140000Y-113337000D01*
X180410000Y-62180000D02*
X182900000Y-62180000D01*
X180410000Y-113400000D02*
X184247939Y-113400000D01*
X182900000Y-62180000D02*
X182900000Y-63093520D01*
X182900000Y-62180000D02*
X184247940Y-62180000D01*
X182900000Y-65486480D02*
X182900000Y-110093520D01*
X182900000Y-112486480D02*
X182900000Y-113400000D01*
X185172061Y-62180000D02*
X186175000Y-62180000D01*
X186175000Y-62180000D02*
X194645000Y-62180000D01*
X186300000Y-60880000D02*
X186300000Y-61700000D01*
X186300000Y-60880000D02*
X194520000Y-60880000D01*
X186300000Y-61700000D02*
X186510000Y-61700000D01*
X186510000Y-61700000D02*
X186510000Y-63096000D01*
X186510000Y-65484000D02*
X186510000Y-66700000D01*
X186810000Y-113400000D02*
X185172061Y-113400000D01*
X194010000Y-113400000D02*
X186810000Y-113400000D01*
X194310000Y-61700000D02*
X194310000Y-63096000D01*
X194310000Y-65484000D02*
X194310000Y-66700000D01*
X194310000Y-66700000D02*
X186510000Y-66700000D01*
X194520000Y-60880000D02*
X194520000Y-61700000D01*
X194520000Y-61700000D02*
X194310000Y-61700000D01*
X194645000Y-62180000D02*
X195647939Y-62180000D01*
X195647939Y-113400000D02*
X194010000Y-113400000D01*
X196572061Y-62180000D02*
X197920000Y-62180000D01*
X196572061Y-113400000D02*
X200410000Y-113400000D01*
X197920000Y-62180000D02*
X197920000Y-63093520D01*
X197920000Y-65486480D02*
X197920000Y-110093520D01*
X197920000Y-112486480D02*
X197920000Y-113400000D01*
X200410000Y-62180000D02*
X197920000Y-62180000D01*
X200680000Y-113337000D02*
X200680000Y-62243000D01*
X201020000Y-62790000D02*
X201020000Y-112790000D01*
X179800000Y-62790000D02*
G75*
G02*
X180410000Y-62180000I610000J0D01*
G01*
X180410000Y-113400000D02*
G75*
G02*
X179800000Y-112790000I-99J609901D01*
G01*
X200410000Y-62180000D02*
G75*
G02*
X201020000Y-62790000I0J-610000D01*
G01*
X201020000Y-112790000D02*
G75*
G02*
X200410000Y-113400000I-610000J0D01*
G01*
%TO.C,SW8*%
X154940000Y-123125000D02*
X154940000Y-133230000D01*
X157260000Y-123125000D02*
X157260000Y-133230000D01*
X159540000Y-123125000D02*
X159540000Y-133230000D01*
X161860000Y-123125000D02*
X161860000Y-133230000D01*
%TO.C,SW4*%
X163730000Y-101725000D02*
X163730000Y-111830000D01*
X166050000Y-101725000D02*
X166050000Y-111830000D01*
X168330000Y-101725000D02*
X168330000Y-111830000D01*
X170650000Y-101725000D02*
X170650000Y-111830000D01*
%TO.C,ME2*%
X217115000Y-63640000D02*
X227220000Y-63640000D01*
X217115000Y-65960000D02*
X227220000Y-65960000D01*
X217115000Y-68240000D02*
X227220000Y-68240000D01*
X217115000Y-70560000D02*
X227220000Y-70560000D01*
X217115000Y-72840000D02*
X227220000Y-72840000D01*
X217115000Y-75160000D02*
X227220000Y-75160000D01*
%TO.C,SW10*%
X187030000Y-122535000D02*
X187030000Y-132640000D01*
X189350000Y-122535000D02*
X189350000Y-132640000D01*
X191630000Y-122535000D02*
X191630000Y-132640000D01*
X193950000Y-122535000D02*
X193950000Y-132640000D01*
X196230000Y-122535000D02*
X196230000Y-132640000D01*
X198550000Y-122535000D02*
X198550000Y-132640000D01*
X200830000Y-122535000D02*
X200830000Y-132640000D01*
X203150000Y-122535000D02*
X203150000Y-132640000D01*
X205430000Y-122535000D02*
X205430000Y-132640000D01*
X207750000Y-122535000D02*
X207750000Y-132640000D01*
%TO.C,DG1*%
X154240000Y-62435000D02*
X154240000Y-72540000D01*
X156560000Y-62435000D02*
X156560000Y-72540000D01*
X158840000Y-62435000D02*
X158840000Y-72540000D01*
X161160000Y-62435000D02*
X161160000Y-72540000D01*
X163440000Y-62435000D02*
X163440000Y-72540000D01*
X165760000Y-62435000D02*
X165760000Y-72540000D01*
X168040000Y-62435000D02*
X168040000Y-72540000D01*
X170360000Y-62435000D02*
X170360000Y-72540000D01*
%TO.C,ME1*%
X216925000Y-91240000D02*
X227030000Y-91240000D01*
X216925000Y-93560000D02*
X227030000Y-93560000D01*
X216925000Y-95840000D02*
X227030000Y-95840000D01*
X216925000Y-98160000D02*
X227030000Y-98160000D01*
X216925000Y-100440000D02*
X227030000Y-100440000D01*
X216925000Y-102760000D02*
X227030000Y-102760000D01*
%TO.C,SW2*%
X154430000Y-81725000D02*
X154430000Y-91830000D01*
X156750000Y-81725000D02*
X156750000Y-91830000D01*
X159030000Y-81725000D02*
X159030000Y-91830000D01*
X161350000Y-81725000D02*
X161350000Y-91830000D01*
%TO.C,SW1*%
X163430000Y-81725000D02*
X163430000Y-91830000D01*
X165750000Y-81725000D02*
X165750000Y-91830000D01*
X168030000Y-81725000D02*
X168030000Y-91830000D01*
X170350000Y-81725000D02*
X170350000Y-91830000D01*
%TO.C,SW11*%
X216935000Y-105640000D02*
X227040000Y-105640000D01*
X216935000Y-107960000D02*
X227040000Y-107960000D01*
X216935000Y-110240000D02*
X227040000Y-110240000D01*
X216935000Y-112560000D02*
X227040000Y-112560000D01*
X216935000Y-114840000D02*
X227040000Y-114840000D01*
X216935000Y-117160000D02*
X227040000Y-117160000D01*
X216935000Y-119440000D02*
X227040000Y-119440000D01*
X216935000Y-121760000D02*
X227040000Y-121760000D01*
X216935000Y-124040000D02*
X227040000Y-124040000D01*
X216935000Y-126360000D02*
X227040000Y-126360000D01*
%TO.C,SW7*%
X146240000Y-123125000D02*
X146240000Y-133230000D01*
X148560000Y-123125000D02*
X148560000Y-133230000D01*
X150840000Y-123125000D02*
X150840000Y-133230000D01*
X153160000Y-123125000D02*
X153160000Y-133230000D01*
%TO.C,SW6*%
X145730000Y-101725000D02*
X145730000Y-111830000D01*
X148050000Y-101725000D02*
X148050000Y-111830000D01*
X150330000Y-101725000D02*
X150330000Y-111830000D01*
X152650000Y-101725000D02*
X152650000Y-111830000D01*
%TO.C,RV1*%
X216925000Y-77240000D02*
X227030000Y-77240000D01*
X216925000Y-79560000D02*
X227030000Y-79560000D01*
X216925000Y-81840000D02*
X227030000Y-81840000D01*
X216925000Y-84160000D02*
X227030000Y-84160000D01*
X216925000Y-86440000D02*
X227030000Y-86440000D01*
X216925000Y-88760000D02*
X227030000Y-88760000D01*
%TO.C,SW3*%
X145430000Y-81725000D02*
X145430000Y-91830000D01*
X147750000Y-81725000D02*
X147750000Y-91830000D01*
X150030000Y-81725000D02*
X150030000Y-91830000D01*
X152350000Y-81725000D02*
X152350000Y-91830000D01*
%TO.C,SW5*%
X154730000Y-101725000D02*
X154730000Y-111830000D01*
X157050000Y-101725000D02*
X157050000Y-111830000D01*
X159330000Y-101725000D02*
X159330000Y-111830000D01*
X161650000Y-101725000D02*
X161650000Y-111830000D01*
%TO.C,SW9*%
X163830000Y-122935000D02*
X163830000Y-133040000D01*
X166150000Y-122935000D02*
X166150000Y-133040000D01*
X168430000Y-122935000D02*
X168430000Y-133040000D01*
X170750000Y-122935000D02*
X170750000Y-133040000D01*
X173030000Y-122935000D02*
X173030000Y-133040000D01*
X175350000Y-122935000D02*
X175350000Y-133040000D01*
X177630000Y-122935000D02*
X177630000Y-133040000D01*
X179950000Y-122935000D02*
X179950000Y-133040000D01*
X182230000Y-122935000D02*
X182230000Y-133040000D01*
X184550000Y-122935000D02*
X184550000Y-133040000D01*
%TD*%
M02*
