%TF.GenerationSoftware,KiCad,Pcbnew,9.0.2*%
%TF.CreationDate,2025-07-17T15:39:28+07:00*%
%TF.ProjectId,KiCAD,4b694341-442e-46b6-9963-61645f706362,rev?*%
%TF.SameCoordinates,Original*%
%TF.FileFunction,Soldermask,Top*%
%TF.FilePolarity,Negative*%
%FSLAX46Y46*%
G04 Gerber Fmt 4.6, Leading zero omitted, Abs format (unit mm)*
G04 Created by KiCad (PCBNEW 9.0.2) date 2025-07-17 15:39:28*
%MOMM*%
%LPD*%
G01*
G04 APERTURE LIST*
G04 Aperture macros list*
%AMRoundRect*
0 Rectangle with rounded corners*
0 $1 Rounding radius*
0 $2 $3 $4 $5 $6 $7 $8 $9 X,Y pos of 4 corners*
0 Add a 4 corners polygon primitive as box body*
4,1,4,$2,$3,$4,$5,$6,$7,$8,$9,$2,$3,0*
0 Add four circle primitives for the rounded corners*
1,1,$1+$1,$2,$3*
1,1,$1+$1,$4,$5*
1,1,$1+$1,$6,$7*
1,1,$1+$1,$8,$9*
0 Add four rect primitives between the rounded corners*
20,1,$1+$1,$2,$3,$4,$5,0*
20,1,$1+$1,$4,$5,$6,$7,0*
20,1,$1+$1,$6,$7,$8,$9,0*
20,1,$1+$1,$8,$9,$2,$3,0*%
%AMFreePoly0*
4,1,37,0.603843,0.796157,0.639018,0.796157,0.711114,0.766294,0.766294,0.711114,0.796157,0.639018,0.796157,0.603843,0.800000,0.600000,0.800000,-0.600000,0.796157,-0.603843,0.796157,-0.639018,0.766294,-0.711114,0.711114,-0.766294,0.639018,-0.796157,0.603843,-0.796157,0.600000,-0.800000,0.000000,-0.800000,0.000000,-0.796148,-0.078414,-0.796148,-0.232228,-0.765552,-0.377117,-0.705537,
-0.507515,-0.618408,-0.618408,-0.507515,-0.705537,-0.377117,-0.765552,-0.232228,-0.796148,-0.078414,-0.796148,0.078414,-0.765552,0.232228,-0.705537,0.377117,-0.618408,0.507515,-0.507515,0.618408,-0.377117,0.705537,-0.232228,0.765552,-0.078414,0.796148,0.000000,0.796148,0.000000,0.800000,0.600000,0.800000,0.603843,0.796157,0.603843,0.796157,$1*%
%AMFreePoly1*
4,1,37,0.000000,0.796148,0.078414,0.796148,0.232228,0.765552,0.377117,0.705537,0.507515,0.618408,0.618408,0.507515,0.705537,0.377117,0.765552,0.232228,0.796148,0.078414,0.796148,-0.078414,0.765552,-0.232228,0.705537,-0.377117,0.618408,-0.507515,0.507515,-0.618408,0.377117,-0.705537,0.232228,-0.765552,0.078414,-0.796148,0.000000,-0.796148,0.000000,-0.800000,-0.600000,-0.800000,
-0.603843,-0.796157,-0.639018,-0.796157,-0.711114,-0.766294,-0.766294,-0.711114,-0.796157,-0.639018,-0.796157,-0.603843,-0.800000,-0.600000,-0.800000,0.600000,-0.796157,0.603843,-0.796157,0.639018,-0.766294,0.711114,-0.711114,0.766294,-0.639018,0.796157,-0.603843,0.796157,-0.600000,0.800000,0.000000,0.800000,0.000000,0.796148,0.000000,0.796148,$1*%
G04 Aperture macros list end*
%ADD10C,2.200000*%
%ADD11RoundRect,0.200000X-0.600000X-0.600000X0.600000X-0.600000X0.600000X0.600000X-0.600000X0.600000X0*%
%ADD12C,1.600000*%
%ADD13FreePoly0,0.000000*%
%ADD14FreePoly1,0.000000*%
%ADD15C,2.600000*%
%ADD16RoundRect,0.250000X-0.825000X-0.825000X0.825000X-0.825000X0.825000X0.825000X-0.825000X0.825000X0*%
%ADD17C,2.150000*%
%ADD18RoundRect,0.250000X0.825000X-0.825000X0.825000X0.825000X-0.825000X0.825000X-0.825000X-0.825000X0*%
G04 APERTURE END LIST*
D10*
%TO.C,M2_1*%
X147000000Y-53000000D03*
%TD*%
D11*
%TO.C,A1*%
X181520000Y-63660000D03*
D12*
X181520000Y-66200000D03*
D13*
X181520000Y-68740000D03*
D12*
X181520000Y-71280000D03*
X181520000Y-73820000D03*
X181520000Y-76360000D03*
X181520000Y-78900000D03*
D13*
X181520000Y-81440000D03*
D12*
X181520000Y-83980000D03*
X181520000Y-86520000D03*
X181520000Y-89060000D03*
X181520000Y-91600000D03*
D13*
X181520000Y-94140000D03*
D12*
X181520000Y-96680000D03*
X181520000Y-99220000D03*
X181520000Y-101760000D03*
X181520000Y-104300000D03*
D13*
X181520000Y-106840000D03*
D12*
X181520000Y-109380000D03*
X181520000Y-111920000D03*
X199300000Y-111920000D03*
X199300000Y-109380000D03*
D14*
X199300000Y-106840000D03*
D12*
X199300000Y-104300000D03*
X199300000Y-101760000D03*
X199300000Y-99220000D03*
X199300000Y-96680000D03*
D14*
X199300000Y-94140000D03*
D12*
X199300000Y-91600000D03*
X199300000Y-89060000D03*
X199300000Y-86520000D03*
X199300000Y-83980000D03*
D14*
X199300000Y-81440000D03*
D12*
X199300000Y-78900000D03*
X199300000Y-76360000D03*
X199300000Y-73820000D03*
X199300000Y-71280000D03*
D14*
X199300000Y-68740000D03*
D12*
X199300000Y-66200000D03*
X199300000Y-63660000D03*
%TD*%
D10*
%TO.C,M2_4*%
X147000000Y-141000000D03*
%TD*%
D15*
%TO.C,SW8*%
X156100000Y-134390000D03*
X160700000Y-134390000D03*
D16*
X156100000Y-121790000D03*
D17*
X160700000Y-121790000D03*
%TD*%
D10*
%TO.C,M2_3*%
X231000000Y-141000000D03*
%TD*%
D15*
%TO.C,SW4*%
X164890000Y-112990000D03*
X169490000Y-112990000D03*
D16*
X164890000Y-100390000D03*
D17*
X169490000Y-100390000D03*
%TD*%
D15*
%TO.C,ME2*%
X228380000Y-74000000D03*
X228380000Y-69400000D03*
X228380000Y-64800000D03*
D18*
X215780000Y-74000000D03*
D17*
X215780000Y-69400000D03*
X215780000Y-64800000D03*
%TD*%
D15*
%TO.C,SW10*%
X188190000Y-133800000D03*
X192790000Y-133800000D03*
X197390000Y-133800000D03*
X201990000Y-133800000D03*
X206590000Y-133800000D03*
D16*
X188190000Y-121200000D03*
D17*
X192790000Y-121200000D03*
X197390000Y-121200000D03*
X201990000Y-121200000D03*
X206590000Y-121200000D03*
%TD*%
D15*
%TO.C,DG1*%
X155400000Y-73700000D03*
X160000000Y-73700000D03*
X164600000Y-73700000D03*
X169200000Y-73700000D03*
D16*
X155400000Y-61100000D03*
D17*
X160000000Y-61100000D03*
X164600000Y-61100000D03*
X169200000Y-61100000D03*
%TD*%
D15*
%TO.C,ME1*%
X228190000Y-101600000D03*
X228190000Y-97000000D03*
X228190000Y-92400000D03*
D18*
X215590000Y-101600000D03*
D17*
X215590000Y-97000000D03*
X215590000Y-92400000D03*
%TD*%
D15*
%TO.C,SW2*%
X155590000Y-92990000D03*
X160190000Y-92990000D03*
D16*
X155590000Y-80390000D03*
D17*
X160190000Y-80390000D03*
%TD*%
D10*
%TO.C,M2_2*%
X231000000Y-53000000D03*
%TD*%
D15*
%TO.C,SW1*%
X164590000Y-92990000D03*
X169190000Y-92990000D03*
D16*
X164590000Y-80390000D03*
D17*
X169190000Y-80390000D03*
%TD*%
D15*
%TO.C,SW11*%
X228200000Y-125200000D03*
X228200000Y-120600000D03*
X228200000Y-116000000D03*
X228200000Y-111400000D03*
X228200000Y-106800000D03*
D18*
X215600000Y-125200000D03*
D17*
X215600000Y-120600000D03*
X215600000Y-116000000D03*
X215600000Y-111400000D03*
X215600000Y-106800000D03*
%TD*%
D15*
%TO.C,SW7*%
X147400000Y-134390000D03*
X152000000Y-134390000D03*
D16*
X147400000Y-121790000D03*
D17*
X152000000Y-121790000D03*
%TD*%
D15*
%TO.C,SW6*%
X146890000Y-112990000D03*
X151490000Y-112990000D03*
D16*
X146890000Y-100390000D03*
D17*
X151490000Y-100390000D03*
%TD*%
D15*
%TO.C,RV1*%
X228190000Y-87600000D03*
X228190000Y-83000000D03*
X228190000Y-78400000D03*
D18*
X215590000Y-87600000D03*
D17*
X215590000Y-83000000D03*
X215590000Y-78400000D03*
%TD*%
D15*
%TO.C,SW3*%
X146590000Y-92990000D03*
X151190000Y-92990000D03*
D16*
X146590000Y-80390000D03*
D17*
X151190000Y-80390000D03*
%TD*%
D15*
%TO.C,SW5*%
X155890000Y-112990000D03*
X160490000Y-112990000D03*
D16*
X155890000Y-100390000D03*
D17*
X160490000Y-100390000D03*
%TD*%
D15*
%TO.C,SW9*%
X164990000Y-134200000D03*
X169590000Y-134200000D03*
X174190000Y-134200000D03*
X178790000Y-134200000D03*
X183390000Y-134200000D03*
D16*
X164990000Y-121600000D03*
D17*
X169590000Y-121600000D03*
X174190000Y-121600000D03*
X178790000Y-121600000D03*
X183390000Y-121600000D03*
%TD*%
M02*
